HIERARCHY
ROOT Hips
{
 OFFSET 0.000000 0.000000 0.000000
 CHANNELS 6 Xposition Yposition Zposition Yrotation Xrotation Zrotation
 JOINT Chest
 {
  OFFSET 0.000000 9.585900 0.002600
  CHANNELS 3 Yrotation Xrotation Zrotation
  JOINT Chest2
  {
   OFFSET 0.000000 9.601200 -0.005300
   CHANNELS 3 Yrotation Xrotation Zrotation
   JOINT Chest3
   {
    OFFSET 0.000000 9.561800 0.000000
    CHANNELS 3 Yrotation Xrotation Zrotation
    JOINT Chest4
    {
     OFFSET 0.000000 9.552100 0.000000
     CHANNELS 3 Yrotation Xrotation Zrotation
     JOINT Neck
     {
      OFFSET 0.000000 14.453000 0.000000
      CHANNELS 3 Yrotation Xrotation Zrotation
      JOINT Head
      {
       OFFSET 0.000000 8.936500 -0.011300
       CHANNELS 3 Yrotation Xrotation Zrotation
       End Site
       {
        OFFSET 0.000000 17.073600 -0.006000
       }
      }
     }
     JOINT RightCollar
     {
      OFFSET -2.921100 9.558500 0.000000
      CHANNELS 3 Yrotation Xrotation Zrotation
      JOINT RightShoulder
      {
       OFFSET -13.519700 0.000000 0.000000
       CHANNELS 3 Yrotation Xrotation Zrotation
       JOINT RightElbow
       {
        OFFSET 0.000000 -29.696600 0.000000
        CHANNELS 3 Yrotation Xrotation Zrotation
        JOINT RightWrist
        {
         OFFSET 0.000000 -24.004700 0.000000
         CHANNELS 3 Yrotation Xrotation Zrotation
         End Site
         {
          OFFSET 0.000000 -17.728500 0.000000
         }
        }
       }
      }
     }
     JOINT LeftCollar
     {
      OFFSET 2.921100 9.558500 0.000000
      CHANNELS 3 Yrotation Xrotation Zrotation
      JOINT LeftShoulder
      {
       OFFSET 13.519700 0.000000 0.000000
       CHANNELS 3 Yrotation Xrotation Zrotation
       JOINT LeftElbow
       {
        OFFSET 0.000000 -29.696600 0.000000
        CHANNELS 3 Yrotation Xrotation Zrotation
        JOINT LeftWrist
        {
         OFFSET 0.000000 -24.004700 0.000000
         CHANNELS 3 Yrotation Xrotation Zrotation
         End Site
         {
          OFFSET 0.000000 -17.728500 0.000000
         }
        }
       }
      }
     }
    }
   }
  }
 }
 JOINT RightHip
 {
  OFFSET -7.771700 -0.012900 -0.001300
  CHANNELS 3 Yrotation Xrotation Zrotation
  JOINT RightKnee
  {
   OFFSET 0.000000 -40.869800 0.001200
   CHANNELS 3 Yrotation Xrotation Zrotation
   JOINT RightAnkle
   {
    OFFSET 0.000000 -39.717900 0.002100
    CHANNELS 3 Yrotation Xrotation Zrotation
    JOINT RightToe
    {
     OFFSET 0.000000 -4.965400 11.033500
     CHANNELS 3 Yrotation Xrotation Zrotation
     End Site
     {
      OFFSET 0.000000 -1.423100 5.872300
     }
    }
   }
  }
 }
 JOINT LeftHip
 {
  OFFSET 7.771700 -0.012900 -0.001300
  CHANNELS 3 Yrotation Xrotation Zrotation
  JOINT LeftKnee
  {
   OFFSET 0.000000 -40.869800 0.001200
   CHANNELS 3 Yrotation Xrotation Zrotation
   JOINT LeftAnkle
   {
    OFFSET 0.000000 -39.717900 0.002100
    CHANNELS 3 Yrotation Xrotation Zrotation
    JOINT LeftToe
    {
     OFFSET 0.000000 -4.965400 11.033500
     CHANNELS 3 Yrotation Xrotation Zrotation
     End Site
     {
      OFFSET 0.000000 -1.423100 5.872300
     }
    }
   }
  }
 }
}
MOTION
Frames: 14
Frame Time: 0.008333
-8.107272 54.354814 28.746515 170.609112 -39.758207 -3.563294 3.536211 21.627903 3.303488 0.412327 2.983964 0.422353 0.681823 4.846651 0.698007 2.981354 18.310860 3.036950 1.608752 14.423852 -0.663285 3.354572 -8.929285 -1.821692 -5.695929 -0.567197 -2.715971 -4.250406 -5.950644 4.778845 -131.080139 -80.746602 151.601629 0.582498 4.822034 -12.030639 -4.893283 0.366114 -0.000569 12.016666 -1.263613 1.452919 163.827908 -75.700446 177.859403 -8.381786 -3.035515 14.306436 -1.767825 -47.772191 8.134647 -115.844939 80.616496 -113.114492 1.146522 0.450695 3.403947 0.395428 -1.729804 -0.562024 -0.977588 -37.200371 6.523661 72.212804 83.417776 62.705634 -4.584499 -12.466964 9.791220 0.194054 0.050465 0.118611
-8.117270 54.354353 28.769655 170.640035 -39.783079 -3.536739 3.494527 21.680308 3.294797 0.414414 2.987702 0.428076 0.685311 4.852324 0.707326 2.996739 18.315871 3.072125 1.631258 14.430036 -0.698543 3.371176 -8.937762 -1.914330 -5.660204 -0.554181 -2.644497 -4.202595 -6.026230 4.676655 -131.819363 -80.809055 152.256904 0.628142 4.899709 -11.962125 -4.897238 0.357411 -0.004030 11.997011 -1.298199 1.414517 164.366506 -75.767879 177.396998 -8.438055 -2.863753 14.129564 -1.771488 -47.419337 7.909484 -116.999329 80.464832 -114.268924 1.219468 0.509616 3.652226 0.356564 -1.942763 -0.624940 -0.929007 -37.191500 6.443581 72.066039 83.388629 62.583496 -4.604063 -12.424601 9.778732 0.200252 0.039989 0.132397
-8.123559 54.355873 28.794010 170.722195 -39.820310 -3.560246 3.427333 21.738723 3.299904 0.415631 2.990628 0.432366 0.690643 4.864080 0.728719 3.007047 18.321656 3.105734 1.657836 14.440112 -0.729726 3.391073 -8.938785 -2.002088 -5.655186 -0.551541 -2.614634 -4.186485 -6.082941 4.615253 -132.250665 -80.852350 152.657677 0.667039 4.992078 -11.873975 -4.920250 0.333027 -0.043850 12.069635 -1.329987 1.537328 164.378495 -75.802784 177.404322 -8.503529 -2.655657 13.923644 -1.790730 -47.033297 7.674194 -117.739136 80.337620 -114.981204 1.304685 0.603320 3.963838 0.275957 -2.078861 -0.730741 -0.921784 -37.178327 6.387181 71.901293 83.368940 62.454234 -4.629339 -12.355802 9.761042 0.217585 0.005410 0.147009
-8.129490 54.363215 28.813698 170.855890 -39.907821 -3.607989 3.319742 21.839555 3.277009 0.416012 2.991659 0.433804 0.703745 4.888554 0.775173 3.011586 18.327634 3.137144 1.671840 14.445964 -0.767189 3.431422 -8.926065 -2.077550 -5.660210 -0.557413 -2.605113 -4.187896 -6.123304 4.576655 -132.438973 -80.878789 152.840906 0.690862 5.092844 -11.767820 -4.941804 0.308375 -0.081880 12.136667 -1.332764 1.618081 164.513328 -75.821327 177.287530 -8.570499 -2.423176 13.697263 -1.792213 -46.572302 7.391149 -118.132946 80.256206 -115.314149 1.390877 0.672569 4.320530 0.155042 -2.093974 -0.862510 -0.980484 -37.094085 6.334192 71.641956 83.336578 62.200053 -4.651015 -12.311993 9.748194 0.244437 -0.014754 0.144102
-8.130329 54.364954 28.843730 170.992162 -39.938193 -3.690756 3.224243 21.897265 3.321048 0.429393 3.018015 0.479793 0.693636 4.875633 0.745808 3.010710 18.333255 3.165031 1.688584 14.454080 -0.800225 3.475186 -8.909159 -2.145629 -5.665002 -0.564600 -2.593338 -4.198413 -6.159546 4.547496 -132.450387 -80.896970 152.857057 0.698999 5.196196 -11.645787 -4.952162 0.300962 -0.080163 12.192981 -1.333042 1.633133 164.628846 -75.834293 177.182789 -8.631785 -2.175762 13.452100 -1.815961 -46.126691 7.150564 -118.303560 80.304974 -115.376687 1.393597 0.531506 4.654607 0.036038 -1.862275 -0.986226 -1.070814 -37.067764 6.324189 71.231362 83.289516 61.793285 -4.645981 -12.270356 9.753318 0.220633 0.003182 0.127778
-8.120414 54.359995 28.886652 170.941936 -39.907159 -3.723183 3.318712 21.915583 3.500901 0.410219 2.984284 0.419773 0.692031 4.889456 0.767818 2.993664 18.318973 3.144172 1.728637 14.481835 -0.786834 3.523462 -8.890932 -2.208615 -5.667659 -0.568648 -2.586614 -4.212006 -6.169416 4.568352 -132.577517 -80.923146 152.997713 0.648868 5.301376 -11.510015 -4.951315 0.319809 -0.038919 12.259079 -1.330620 1.645294 164.438055 -75.810131 177.340367 -8.722257 -1.884493 13.208127 -1.810614 -45.682674 7.059269 -118.344558 80.610571 -115.257155 1.180232 -0.016773 4.687347 0.040512 -1.297265 -0.914813 -1.069304 -37.119121 6.401339 71.087721 83.274924 61.664482 -4.613843 -12.264870 9.745349 0.179252 0.025991 0.123318
-8.098170 54.339962 28.953063 170.780413 -39.729792 -3.774085 3.496022 21.755086 3.710067 0.408758 2.967555 0.395420 0.690726 4.911099 0.802417 2.980435 18.303998 3.121745 1.764977 14.509109 -0.769345 3.577583 -8.871923 -2.267588 -5.645484 -0.545562 -2.519861 -4.248435 -6.211002 4.517610 -132.112153 -80.902813 152.548991 0.661316 5.397505 -11.360214 -4.955218 0.334166 0.004492 12.329867 -1.321232 1.653893 164.399609 -75.830476 177.390167 -8.735943 -1.645511 12.915203 -1.903351 -45.329756 7.182126 -118.028135 81.099774 -114.773360 1.005731 -0.917840 4.148847 0.078868 -0.528386 -0.467784 -1.040670 -37.330921 6.579179 70.885176 83.236349 61.498297 -4.528573 -12.277451 9.732795 0.082794 0.069250 0.097522
-8.080359 54.327141 29.010656 170.682565 -39.614561 -3.826673 3.610718 21.655798 3.866160 0.409605 3.005251 0.455295 0.680901 4.887562 0.765179 2.971219 18.305299 3.142666 1.788835 14.519406 -0.792856 3.635514 -8.851838 -2.320838 -5.628230 -0.555368 -2.520303 -4.283090 -6.227973 4.511774 -131.713930 -80.883036 152.165950 0.680641 5.491635 -11.201194 -4.957446 0.324547 0.002915 12.394820 -1.312044 1.662418 164.262600 -75.850445 177.537307 -8.746613 -1.402216 12.606524 -2.052354 -44.890591 7.287234 -117.102025 81.579910 -113.714896 1.059776 -1.867123 3.291259 0.055532 0.153159 0.119473 -1.027872 -37.475936 6.709106 70.693777 83.195234 61.340544 -4.492381 -12.254807 9.729659 0.028858 0.068980 0.060264
-8.073482 54.319856 29.058994 170.642798 -39.549368 -3.837949 3.652252 21.629097 3.956459 0.408284 3.015603 0.472497 0.675475 4.878323 0.756763 2.959525 18.305631 3.157827 1.818687 14.529642 -0.808661 3.695845 -8.830311 -2.368774 -5.630239 -0.593860 -2.578667 -4.297267 -6.199207 4.582403 -131.793787 -80.889087 152.261954 0.664008 5.600353 -11.045307 -4.957312 0.307149 0.000180 12.461693 -1.299858 1.671869 164.074451 -75.854484 177.731756 -8.763239 -1.135558 12.271902 -2.175345 -44.394236 7.276462 -116.166952 82.136621 -112.662287 1.043727 -2.874530 2.668872 0.005453 0.753805 0.397362 -1.014612 -37.555985 6.750893 70.436782 83.143491 61.098296 -4.487497 -12.208578 9.718434 0.005995 0.065529 0.049646
-8.074960 54.314537 29.102355 170.633477 -39.502112 -3.807812 3.649667 21.636692 4.000352 0.405961 3.004861 0.461985 0.672278 4.878385 0.761905 2.946006 18.306863 3.175784 1.850094 14.539005 -0.826111 3.698808 -8.839566 -2.422239 -5.619404 -0.580001 -2.527185 -4.308834 -6.227145 4.524005 -131.848777 -80.875057 152.316574 0.687426 5.731623 -10.879809 -4.938467 0.298574 0.041002 12.518442 -1.290564 1.625557 164.004054 -75.859248 177.822489 -8.778570 -0.856576 11.885863 -2.279475 -43.876788 7.170442 -116.093330 82.930273 -112.451663 0.749580 -4.062484 2.266020 -0.014632 1.356265 0.419028 -0.975634 -37.618256 6.713234 70.241984 83.086993 60.913903 -4.504074 -12.167142 9.708255 -0.007538 0.072686 0.052075
-8.073053 54.311797 29.142125 170.649597 -39.476810 -3.800021 3.637522 21.650758 4.043540 0.404105 3.004821 0.464784 0.669366 4.878256 0.766434 2.924664 18.311983 3.193905 1.885970 14.544483 -0.844895 3.699186 -8.843331 -2.471970 -5.617459 -0.585081 -2.540176 -4.316995 -6.217556 4.528153 -132.018480 -80.846669 152.476264 0.749383 5.898682 -10.698127 -4.934881 0.259613 -0.016199 12.603937 -1.275620 1.671082 164.189941 -75.865573 177.675155 -8.795004 -0.549489 11.419614 -2.437853 -43.351701 7.062827 -116.851650 83.828632 -113.055944 0.414821 -5.292311 1.780094 -0.026549 1.850705 0.464008 -0.919447 -37.687112 6.672806 70.200028 83.050084 60.915284 -4.528283 -12.104913 9.702572 -0.012559 0.058822 0.053829
-8.076672 54.308183 29.178963 170.679236 -39.451510 -3.749638 3.599762 21.659769 4.035134 0.402253 3.004586 0.467287 0.666383 4.877939 0.770423 2.935456 18.336676 3.275781 1.871781 14.527221 -0.920460 3.755161 -8.807312 -2.498814 -5.643211 -0.602108 -2.613036 -4.332918 -6.219490 4.524798 -132.396754 -80.818271 152.835516 0.808817 6.121962 -10.488246 -4.961935 0.203265 -0.127232 12.705734 -1.263373 1.710892 164.757078 -75.871720 177.167848 -8.824753 -0.183450 10.842077 -2.548079 -42.877161 6.863791 -117.682700 84.653979 -113.722545 0.182394 -6.404172 1.155852 -0.016659 2.184259 0.602771 -0.883244 -37.721146 6.586152 69.983152 82.995403 60.693227 -4.560489 -12.053262 9.708797 -0.001208 0.052484 0.045932
-8.073603 54.301046 29.218252 170.684541 -39.404018 -3.704430 3.592543 21.636870 4.049591 0.400101 3.004140 0.469670 0.662964 4.877247 0.774262 2.930755 18.340741 3.310478 1.844016 14.518339 -0.984496 3.830039 -8.772438 -2.497061 -5.647636 -0.573901 -2.630231 -4.358692 -6.266142 4.472738 -132.706747 -80.779168 153.106010 0.893463 6.416348 -10.220203 -4.972802 0.179236 -0.174448 12.824061 -1.242645 1.724905 165.776997 -75.866127 176.237152 -8.898878 0.299591 10.115910 -2.589576 -42.501777 6.675695 -118.235002 85.320593 -114.065547 0.061681 -7.385080 0.461980 -0.005076 2.384368 0.776553 -0.828867 -37.793461 6.527934 69.809181 82.965469 60.531621 -4.583775 -11.993317 9.714285 0.003537 0.036879 0.038011
-8.066556 54.289694 29.258861 170.706051 -39.334725 -3.668709 3.579689 21.588536 4.064513 0.381794 2.995704 0.440129 0.677873 4.884292 0.809564 2.918559 18.339288 3.324127 1.819851 14.513951 -1.025826 3.878224 -8.765281 -2.500385 -5.653302 -0.547465 -2.638229 -4.443641 -6.137474 4.547096 -134.325043 -80.698304 154.761790 1.005171 6.788164 -9.877726 -4.972730 0.172043 -0.155617 12.952583 -1.210187 1.697361 167.255743 -75.827751 174.890953 -9.054751 0.978384 9.183719 -2.578920 -42.234021 6.486844 -118.535649 85.766562 -114.133089 0.042345 -8.284691 -0.230344 0.022525 2.486406 0.944449 -0.796013 -37.901071 6.490085 69.636985 82.934356 60.361740 -4.616061 -11.900689 9.720049 0.010638 0.007766 0.035243
